<?xml version="1.0" encoding="UTF-8"?><svg id="_レイヤー_2" xmlns="http://www.w3.org/2000/svg" viewBox="0 0 291.29 66.63"><defs><style>.cls-1{fill:#fff;stroke:#f5c636;stroke-width:5px;}.cls-1,.cls-2{stroke-miterlimit:10;}.cls-2{fill:none;stroke:#444;stroke-width:3px;}.cls-3{fill:#444;}.cls-3,.cls-4,.cls-5{stroke-width:0px;}.cls-4{fill:#ebc03c;}.cls-5{fill:#f5c636;}</style></defs><g id="_レイヤー_1-2"><path class="cls-1" d="M2.5,39.62c0-.81.66-1.47,1.47-1.47h14.75v-22.01H6.17c-.81,0-1.47-.66-1.47-1.47s.66-1.47,1.47-1.47h12.54V3.97c0-.81.66-1.47,1.47-1.47h25.16c.81,0,1.47.66,1.47,1.47v9.24h12.18c.81,0,1.47.66,1.47,1.47s-.66,1.47-1.47,1.47h-12.18v22.01h14.38c.81,0,1.47.66,1.47,1.47s-.66,1.47-1.47,1.47h-14.38v21.57c0,.81-.66,1.47-1.47,1.47h-25.16c-.81,0-1.47-.66-1.47-1.47v-21.57H3.97c-.81,0-1.47-.66-1.47-1.47Z"/><path class="cls-3" d="M138.37,24.76c0,.79-.65,1.44-1.44,1.44h-10.66l-10.58,35.5c-.14.65-.72,1.08-1.37,1.08h-25.42c-.5,0-.94-.22-1.15-.65-.29-.36-.36-.79-.22-1.22l10.3-34.71h-16.35c-.79,0-1.44-.65-1.44-1.44s.65-1.44,1.44-1.44h55.44c.79,0,1.44.65,1.44,1.44Z"/><path class="cls-3" d="M134.77,5.32c.79,0,1.44.65,1.44,1.44s-.65,1.44-1.44,1.44h-51.12c-.79,0-1.44-.65-1.44-1.44s.65-1.44,1.44-1.44h51.12Z"/><path class="cls-5" d="M209.51,32.25l-15.12,29.74c-.29.5-.79.79-1.3.79h-38.09c-.79,0-1.44-.65-1.44-1.44V3.8c0-.79.65-1.44,1.44-1.44h24.77c.79,0,1.44.65,1.44,1.44v56.09h11.02c.72-1.51,14.69-28.95,14.69-28.95.36-.72,1.22-1.01,1.94-.65.72.36,1.01,1.22.65,1.94Z"/><path class="cls-2" d="M226.21,37.14c-.79,0-1.44-.65-1.44-1.44V6.76c0-.79.65-1.44,1.44-1.44s1.44.65,1.44,1.44v28.95c0,.79-.65,1.44-1.44,1.44Z"/><path class="cls-2" d="M237.94,37.14c-.79,0-1.44-.65-1.44-1.44V6.76c0-.79.65-1.44,1.44-1.44s1.44.65,1.44,1.44v28.95c0,.79-.65,1.44-1.44,1.44Z"/><path class="cls-3" d="M282.88,6.33l-12.39,55.3c-.14.65-.72,1.15-1.37,1.15h-24.77c-.43,0-.79-.22-1.08-.58-.29-.29-.36-.72-.29-1.15l12.31-55.37c.14-.65.72-1.15,1.44-1.15h24.7c.43,0,.86.22,1.15.58.29.29.36.79.29,1.22Z"/><polygon class="cls-4" points="282.59 5.1 291.29 13.8 291.29 62.78 270.49 62.78 282.59 5.1"/></g></svg>